<mxfile host="app.diagrams.net" agent="Mozilla/5.0 (Windows NT 10.0; Win64; x64) AppleWebKit/537.36 (KHTML, like Gecko) Chrome/130.0.0.0 Safari/537.36" version="24.8.3">
  <diagram name="Page-1" id="fWWnP7KjWhj3hoe-2kkr">
    <mxGraphModel dx="1221" dy="638" grid="1" gridSize="10" guides="1" tooltips="1" connect="1" arrows="1" fold="1" page="1" pageScale="1" pageWidth="850" pageHeight="1100" math="0" shadow="0">
      <root>
        <mxCell id="0" />
        <mxCell id="1" parent="0" />
        <mxCell id="0KvPCGB-JMUwxrYX1keu-20" style="edgeStyle=orthogonalEdgeStyle;rounded=0;orthogonalLoop=1;jettySize=auto;html=1;entryX=0;entryY=0.5;entryDx=0;entryDy=0;curved=1;exitX=1;exitY=0.137;exitDx=0;exitDy=0;exitPerimeter=0;" parent="1" source="0KvPCGB-JMUwxrYX1keu-1" target="0KvPCGB-JMUwxrYX1keu-3" edge="1">
          <mxGeometry relative="1" as="geometry" />
        </mxCell>
        <mxCell id="0KvPCGB-JMUwxrYX1keu-1" value="User" style="rounded=0;whiteSpace=wrap;html=1;" parent="1" vertex="1">
          <mxGeometry x="70" y="200" width="120" height="60" as="geometry" />
        </mxCell>
        <mxCell id="0KvPCGB-JMUwxrYX1keu-21" style="edgeStyle=orthogonalEdgeStyle;rounded=0;orthogonalLoop=1;jettySize=auto;html=1;entryX=1;entryY=0.5;entryDx=0;entryDy=0;curved=1;" parent="1" source="0KvPCGB-JMUwxrYX1keu-2" target="0KvPCGB-JMUwxrYX1keu-3" edge="1">
          <mxGeometry relative="1" as="geometry" />
        </mxCell>
        <mxCell id="gOrS8BwtyJCmeSW4xfa6-10" style="edgeStyle=orthogonalEdgeStyle;rounded=0;orthogonalLoop=1;jettySize=auto;html=1;entryX=1;entryY=0.5;entryDx=0;entryDy=0;curved=1;exitX=0.75;exitY=1;exitDx=0;exitDy=0;" parent="1" source="0KvPCGB-JMUwxrYX1keu-2" target="gOrS8BwtyJCmeSW4xfa6-4" edge="1">
          <mxGeometry relative="1" as="geometry">
            <mxPoint x="780" y="340" as="sourcePoint" />
            <Array as="points">
              <mxPoint x="780" y="260" />
              <mxPoint x="780" y="330" />
              <mxPoint x="685" y="330" />
              <mxPoint x="685" y="375" />
            </Array>
          </mxGeometry>
        </mxCell>
        <mxCell id="0KvPCGB-JMUwxrYX1keu-2" value="Admin" style="rounded=0;whiteSpace=wrap;html=1;" parent="1" vertex="1">
          <mxGeometry x="680" y="200" width="120" height="60" as="geometry" />
        </mxCell>
        <mxCell id="0KvPCGB-JMUwxrYX1keu-13" style="edgeStyle=orthogonalEdgeStyle;rounded=0;orthogonalLoop=1;jettySize=auto;html=1;entryX=0.5;entryY=0;entryDx=0;entryDy=0;" parent="1" source="0KvPCGB-JMUwxrYX1keu-3" target="0KvPCGB-JMUwxrYX1keu-10" edge="1">
          <mxGeometry relative="1" as="geometry" />
        </mxCell>
        <mxCell id="0KvPCGB-JMUwxrYX1keu-3" value="Registration" style="ellipse;whiteSpace=wrap;html=1;" parent="1" vertex="1">
          <mxGeometry x="375" y="20" width="120" height="80" as="geometry" />
        </mxCell>
        <mxCell id="0KvPCGB-JMUwxrYX1keu-16" style="edgeStyle=orthogonalEdgeStyle;rounded=0;orthogonalLoop=1;jettySize=auto;html=1;entryX=0.5;entryY=0;entryDx=0;entryDy=0;" parent="1" source="0KvPCGB-JMUwxrYX1keu-4" target="0KvPCGB-JMUwxrYX1keu-11" edge="1">
          <mxGeometry relative="1" as="geometry" />
        </mxCell>
        <mxCell id="0KvPCGB-JMUwxrYX1keu-4" value="Input/Store Health Metrics" style="ellipse;whiteSpace=wrap;html=1;" parent="1" vertex="1">
          <mxGeometry x="375" y="260" width="120" height="80" as="geometry" />
        </mxCell>
        <mxCell id="0KvPCGB-JMUwxrYX1keu-19" style="edgeStyle=orthogonalEdgeStyle;rounded=0;orthogonalLoop=1;jettySize=auto;html=1;" parent="1" source="0KvPCGB-JMUwxrYX1keu-5" target="0KvPCGB-JMUwxrYX1keu-12" edge="1">
          <mxGeometry relative="1" as="geometry" />
        </mxCell>
        <mxCell id="0KvPCGB-JMUwxrYX1keu-27" style="edgeStyle=orthogonalEdgeStyle;rounded=0;orthogonalLoop=1;jettySize=auto;html=1;entryX=0.25;entryY=1;entryDx=0;entryDy=0;curved=1;exitX=0;exitY=1;exitDx=0;exitDy=0;" parent="1" source="0KvPCGB-JMUwxrYX1keu-5" edge="1">
          <mxGeometry relative="1" as="geometry">
            <mxPoint x="365" y="520" as="sourcePoint" />
            <mxPoint x="90" y="260" as="targetPoint" />
          </mxGeometry>
        </mxCell>
        <mxCell id="0KvPCGB-JMUwxrYX1keu-5" value="Prediction Model" style="ellipse;whiteSpace=wrap;html=1;" parent="1" vertex="1">
          <mxGeometry x="375" y="480" width="120" height="80" as="geometry" />
        </mxCell>
        <mxCell id="0KvPCGB-JMUwxrYX1keu-14" style="edgeStyle=orthogonalEdgeStyle;rounded=0;orthogonalLoop=1;jettySize=auto;html=1;exitX=0.5;exitY=1;exitDx=0;exitDy=0;entryX=0.5;entryY=0;entryDx=0;entryDy=0;" parent="1" source="0KvPCGB-JMUwxrYX1keu-10" target="0KvPCGB-JMUwxrYX1keu-4" edge="1">
          <mxGeometry relative="1" as="geometry" />
        </mxCell>
        <mxCell id="0KvPCGB-JMUwxrYX1keu-10" value="Users DB" style="shape=partialRectangle;whiteSpace=wrap;html=1;left=0;right=0;fillColor=none;" parent="1" vertex="1">
          <mxGeometry x="382.5" y="160" width="105" height="40" as="geometry" />
        </mxCell>
        <mxCell id="0KvPCGB-JMUwxrYX1keu-17" style="edgeStyle=orthogonalEdgeStyle;rounded=0;orthogonalLoop=1;jettySize=auto;html=1;entryX=0.5;entryY=0;entryDx=0;entryDy=0;" parent="1" source="0KvPCGB-JMUwxrYX1keu-11" target="0KvPCGB-JMUwxrYX1keu-5" edge="1">
          <mxGeometry relative="1" as="geometry" />
        </mxCell>
        <mxCell id="0KvPCGB-JMUwxrYX1keu-11" value="Health Metrics&lt;div&gt;DB&lt;/div&gt;" style="shape=partialRectangle;whiteSpace=wrap;html=1;left=0;right=0;fillColor=none;" parent="1" vertex="1">
          <mxGeometry x="387.5" y="390" width="95" height="40" as="geometry" />
        </mxCell>
        <mxCell id="0KvPCGB-JMUwxrYX1keu-18" style="edgeStyle=orthogonalEdgeStyle;rounded=0;orthogonalLoop=1;jettySize=auto;html=1;" parent="1" source="0KvPCGB-JMUwxrYX1keu-12" edge="1">
          <mxGeometry relative="1" as="geometry">
            <mxPoint x="500" y="520" as="targetPoint" />
          </mxGeometry>
        </mxCell>
        <mxCell id="0KvPCGB-JMUwxrYX1keu-12" value="Recommendation&lt;div&gt;DB&lt;/div&gt;" style="shape=partialRectangle;whiteSpace=wrap;html=1;left=0;right=0;fillColor=none;" parent="1" vertex="1">
          <mxGeometry x="590" y="500" width="100" height="40" as="geometry" />
        </mxCell>
        <mxCell id="0KvPCGB-JMUwxrYX1keu-23" value="login" style="text;html=1;align=center;verticalAlign=middle;resizable=0;points=[];autosize=1;strokeColor=none;fillColor=none;" parent="1" vertex="1">
          <mxGeometry x="230" y="120" width="50" height="30" as="geometry" />
        </mxCell>
        <mxCell id="0KvPCGB-JMUwxrYX1keu-24" value="login" style="text;html=1;align=center;verticalAlign=middle;resizable=0;points=[];autosize=1;strokeColor=none;fillColor=none;" parent="1" vertex="1">
          <mxGeometry x="580" y="140" width="50" height="30" as="geometry" />
        </mxCell>
        <mxCell id="0KvPCGB-JMUwxrYX1keu-26" style="edgeStyle=orthogonalEdgeStyle;rounded=0;orthogonalLoop=1;jettySize=auto;html=1;curved=1;" parent="1" source="0KvPCGB-JMUwxrYX1keu-5" target="0KvPCGB-JMUwxrYX1keu-1" edge="1">
          <mxGeometry relative="1" as="geometry" />
        </mxCell>
        <mxCell id="0KvPCGB-JMUwxrYX1keu-28" value="prediction" style="text;html=1;align=center;verticalAlign=middle;resizable=0;points=[];autosize=1;strokeColor=none;fillColor=none;" parent="1" vertex="1">
          <mxGeometry x="170" y="420" width="80" height="30" as="geometry" />
        </mxCell>
        <mxCell id="0KvPCGB-JMUwxrYX1keu-29" value="tips" style="text;html=1;align=center;verticalAlign=middle;resizable=0;points=[];autosize=1;strokeColor=none;fillColor=none;" parent="1" vertex="1">
          <mxGeometry x="130" y="470" width="40" height="30" as="geometry" />
        </mxCell>
        <mxCell id="0KvPCGB-JMUwxrYX1keu-30" style="edgeStyle=orthogonalEdgeStyle;rounded=0;orthogonalLoop=1;jettySize=auto;html=1;entryX=0.012;entryY=0.702;entryDx=0;entryDy=0;entryPerimeter=0;curved=1;exitX=1;exitY=0.75;exitDx=0;exitDy=0;" parent="1" source="0KvPCGB-JMUwxrYX1keu-1" target="0KvPCGB-JMUwxrYX1keu-4" edge="1">
          <mxGeometry relative="1" as="geometry" />
        </mxCell>
        <mxCell id="0KvPCGB-JMUwxrYX1keu-31" value="heartRate, bp, respiratoryRate,&lt;div&gt;&lt;span style=&quot;background-color: initial;&quot;&gt;&amp;nbsp;glucoseLevel,&amp;nbsp;&lt;/span&gt;&lt;div&gt;&lt;div&gt;spo2, bodyTemp, height,&lt;/div&gt;&lt;div&gt;&lt;span style=&quot;background-color: initial;&quot;&gt;weight, avgSleep, age&lt;/span&gt;&lt;/div&gt;&lt;/div&gt;&lt;/div&gt;" style="text;html=1;align=center;verticalAlign=middle;resizable=0;points=[];autosize=1;strokeColor=none;fillColor=none;" parent="1" vertex="1">
          <mxGeometry x="192.5" y="265" width="190" height="70" as="geometry" />
        </mxCell>
        <mxCell id="gOrS8BwtyJCmeSW4xfa6-1" value="1" style="text;html=1;align=center;verticalAlign=middle;resizable=0;points=[];autosize=1;strokeColor=none;fillColor=none;" parent="1" vertex="1">
          <mxGeometry x="420" y="20" width="30" height="30" as="geometry" />
        </mxCell>
        <mxCell id="gOrS8BwtyJCmeSW4xfa6-2" value="2" style="text;html=1;align=center;verticalAlign=middle;resizable=0;points=[];autosize=1;strokeColor=none;fillColor=none;" parent="1" vertex="1">
          <mxGeometry x="420" y="265" width="30" height="30" as="geometry" />
        </mxCell>
        <mxCell id="gOrS8BwtyJCmeSW4xfa6-3" value="3" style="text;html=1;align=center;verticalAlign=middle;resizable=0;points=[];autosize=1;strokeColor=none;fillColor=none;" parent="1" vertex="1">
          <mxGeometry x="420" y="480" width="30" height="30" as="geometry" />
        </mxCell>
        <mxCell id="gOrS8BwtyJCmeSW4xfa6-7" style="edgeStyle=orthogonalEdgeStyle;rounded=0;orthogonalLoop=1;jettySize=auto;html=1;entryX=0.25;entryY=0;entryDx=0;entryDy=0;curved=1;" parent="1" source="gOrS8BwtyJCmeSW4xfa6-4" target="0KvPCGB-JMUwxrYX1keu-12" edge="1">
          <mxGeometry relative="1" as="geometry">
            <Array as="points">
              <mxPoint x="630" y="480" />
              <mxPoint x="615" y="480" />
            </Array>
          </mxGeometry>
        </mxCell>
        <mxCell id="gOrS8BwtyJCmeSW4xfa6-8" style="edgeStyle=orthogonalEdgeStyle;rounded=0;orthogonalLoop=1;jettySize=auto;html=1;entryX=1;entryY=1;entryDx=0;entryDy=0;curved=1;" parent="1" source="gOrS8BwtyJCmeSW4xfa6-4" target="0KvPCGB-JMUwxrYX1keu-10" edge="1">
          <mxGeometry relative="1" as="geometry">
            <Array as="points">
              <mxPoint x="560" y="200" />
            </Array>
          </mxGeometry>
        </mxCell>
        <mxCell id="gOrS8BwtyJCmeSW4xfa6-4" value="Admin operations" style="ellipse;whiteSpace=wrap;html=1;" parent="1" vertex="1">
          <mxGeometry x="545" y="335" width="120" height="80" as="geometry" />
        </mxCell>
        <mxCell id="gOrS8BwtyJCmeSW4xfa6-6" style="edgeStyle=orthogonalEdgeStyle;rounded=0;orthogonalLoop=1;jettySize=auto;html=1;curved=1;exitX=0.5;exitY=1;exitDx=0;exitDy=0;" parent="1" source="0KvPCGB-JMUwxrYX1keu-2" edge="1">
          <mxGeometry relative="1" as="geometry">
            <mxPoint x="654" y="346" as="targetPoint" />
          </mxGeometry>
        </mxCell>
        <mxCell id="gOrS8BwtyJCmeSW4xfa6-9" value="4" style="text;html=1;align=center;verticalAlign=middle;resizable=0;points=[];autosize=1;strokeColor=none;fillColor=none;" parent="1" vertex="1">
          <mxGeometry x="590" y="335" width="30" height="30" as="geometry" />
        </mxCell>
        <mxCell id="gOrS8BwtyJCmeSW4xfa6-11" value="User mgm&lt;span style=&quot;background-color: initial;&quot;&gt;t&lt;/span&gt;" style="text;html=1;align=center;verticalAlign=middle;resizable=0;points=[];autosize=1;strokeColor=none;fillColor=none;" parent="1" vertex="1">
          <mxGeometry x="620" y="280" width="80" height="30" as="geometry" />
        </mxCell>
        <mxCell id="gOrS8BwtyJCmeSW4xfa6-12" value="Content mgmt" style="text;html=1;align=center;verticalAlign=middle;resizable=0;points=[];autosize=1;strokeColor=none;fillColor=none;" parent="1" vertex="1">
          <mxGeometry x="700" y="330" width="100" height="30" as="geometry" />
        </mxCell>
        <mxCell id="AX2mqQHP4vmnjmUIQQVB-1" style="edgeStyle=orthogonalEdgeStyle;rounded=0;orthogonalLoop=1;jettySize=auto;html=1;entryX=0.067;entryY=0.335;entryDx=0;entryDy=0;entryPerimeter=0;curved=1;exitX=0.5;exitY=0;exitDx=0;exitDy=0;" edge="1" parent="1" source="0KvPCGB-JMUwxrYX1keu-1" target="0KvPCGB-JMUwxrYX1keu-3">
          <mxGeometry relative="1" as="geometry">
            <Array as="points">
              <mxPoint x="140" y="200" />
              <mxPoint x="140" y="47" />
            </Array>
          </mxGeometry>
        </mxCell>
        <mxCell id="AX2mqQHP4vmnjmUIQQVB-2" value="signup" style="text;html=1;align=center;verticalAlign=middle;resizable=0;points=[];autosize=1;strokeColor=none;fillColor=none;" vertex="1" parent="1">
          <mxGeometry x="155" y="80" width="60" height="30" as="geometry" />
        </mxCell>
        <mxCell id="AX2mqQHP4vmnjmUIQQVB-3" style="edgeStyle=orthogonalEdgeStyle;rounded=0;orthogonalLoop=1;jettySize=auto;html=1;entryX=0.631;entryY=1.002;entryDx=0;entryDy=0;entryPerimeter=0;curved=1;exitX=0;exitY=1;exitDx=0;exitDy=0;" edge="1" parent="1" source="0KvPCGB-JMUwxrYX1keu-4" target="0KvPCGB-JMUwxrYX1keu-1">
          <mxGeometry relative="1" as="geometry">
            <Array as="points">
              <mxPoint x="370" y="328" />
              <mxPoint x="370" y="390" />
              <mxPoint x="146" y="390" />
            </Array>
          </mxGeometry>
        </mxCell>
        <mxCell id="AX2mqQHP4vmnjmUIQQVB-4" value="past records" style="text;html=1;align=center;verticalAlign=middle;resizable=0;points=[];autosize=1;strokeColor=none;fillColor=none;" vertex="1" parent="1">
          <mxGeometry x="210" y="365" width="90" height="30" as="geometry" />
        </mxCell>
      </root>
    </mxGraphModel>
  </diagram>
</mxfile>
